<svg enable-background="new 0 0 64 64" viewBox="0 0 64 64" xmlns="http://www.w3.org/2000/svg"><path d="m32 23.4c4.8 0 8.6 3.9 8.6 8.6s-3.9 8.6-8.6 8.6-8.6-3.9-8.6-8.6c0-4.8 3.8-8.6 8.6-8.6m0-3c-6.4 0-11.6 5.2-11.6 11.6s5.2 11.6 11.6 11.6 11.6-5.2 11.6-11.6c0-6.4-5.2-11.6-11.6-11.6z" fill="#fff"/><g fill="none" stroke="#fff" stroke-linecap="round" stroke-miterlimit="10" stroke-width="3"><path d="m32 15.7v-6.2"/><path d="m32 54.5v-6.2"/><path d="m43.5 20.5 4.4-4.4"/><path d="m16.1 47.9 4.4-4.4"/><path d="m20.5 20.5-4.4-4.4"/><path d="m47.9 47.9-4.4-4.4"/><path d="m15.7 32h-6.2"/><path d="m54.5 32h-6.2"/></g></svg>