<svg enable-background="new 0 0 64 64" viewBox="0 0 64 64" xmlns="http://www.w3.org/2000/svg"><g fill="#fff"><path d="m32.3 47.2.3.8c0 .2.2.2.4.2l.8-.4c.1-.1.3 0 .4.1v.3l-.4.8c-.1.1 0 .3.1.4l.8.3c.2.1.2.2.2.4 0 .1-.1.1-.2.2l-.7.3c-.2 0-.2.2-.2.4l.4.8c.1.1 0 .3-.1.4-.1 0-.2 0-.3 0l-.8-.4c-.1-.1-.3 0-.4.1l-.3.8c-.1.3-.2.3-.4.3-.1 0-.1-.1-.2-.2l-.3-.8c0-.2-.2-.2-.4-.2l-.8.4c-.1.1-.3 0-.4-.1 0-.1 0-.2 0-.3l.4-.8c.1-.1 0-.3-.1-.4l-.8-.3c-.3-.1-.3-.2-.3-.4 0-.1.1-.1.2-.2l.8-.3c.2 0 .2-.2.2-.4l-.4-.8c-.1-.1 0-.3.1-.4h.3l.8.4c.1.1.3 0 .4-.1l.3-.8c.1-.2.2-.2.4-.2.1 0 .2 0 .2.1z"/><path d="m39.3 47.2.3.8c0 .2.2.2.4.2l.8-.4c.1-.1.3 0 .4.1v.3l-.4.8c-.1.1 0 .3.1.4l.8.3c.2.1.2.2.2.4 0 .1-.1.1-.2.2l-.7.3c-.2 0-.2.2-.2.4l.4.8c.1.1 0 .3-.1.4-.1 0-.2 0-.3 0l-.8-.4c-.1-.1-.3 0-.4.1l-.3.8c-.1.3-.2.3-.4.3-.1 0-.1-.1-.2-.2l-.3-.8c0-.2-.2-.2-.4-.2l-.8.4c-.1.1-.3 0-.4-.1 0-.1 0-.2 0-.3l.4-.8c.1-.1 0-.3-.1-.4l-.8-.3c-.3-.1-.3-.2-.3-.4 0-.1.1-.1.2-.2l.8-.3c.2 0 .2-.2.2-.4l-.4-.8c-.1-.1 0-.3.1-.4h.3l.8.4c.1.1.3 0 .4-.1l.3-.8c.1-.2.2-.2.4-.2.1 0 .2 0 .2.1z"/><path d="m25.3 47.2.3.8c0 .2.2.2.4.2l.8-.4c.1-.1.3 0 .4.1v.3l-.4.8c-.1.1 0 .3.1.4l.8.3c.2.1.2.2.2.4 0 .1-.1.1-.2.2l-.7.3c-.2 0-.2.2-.2.4l.4.8c.1.1 0 .3-.1.4-.1 0-.2 0-.3 0l-.8-.4c-.1-.1-.3 0-.4.1l-.3.8c-.1.3-.2.3-.4.3-.1 0-.1-.1-.2-.2l-.3-.8c0-.2-.2-.2-.4-.2l-.8.4c-.1.1-.3 0-.4-.1 0-.1 0-.2 0-.3l.4-.8c.1-.1 0-.3-.1-.4l-.8-.3c-.3-.1-.3-.2-.3-.4 0-.1.1-.1.2-.2l.8-.3c.2 0 .2-.2.2-.4l-.4-.8c-.1-.1 0-.3.1-.4h.3l.8.4c.1.1.3 0 .4-.1l.3-.8c.1-.2.2-.2.4-.2.1 0 .2 0 .2.1z"/></g><path d="m46.5 31.5h-.3c1.4-5.6-2.1-11.3-7.7-12.7-4.4-1.1-9 .8-11.4 4.7-3.3-2-7.6-.9-9.6 2.5-.6 1.1-1 2.3-1 3.5 0 .4 0 .8.1 1.1-4.1.8-6.7 4.7-5.9 8.8.7 3.5 3.7 6 7.3 6.1h.5 28c3.9 0 7-3.1 7-7s-3.1-7-7-7z" fill="none" stroke="#fff" stroke-linejoin="round" stroke-width="3"/></svg>