<svg width="184" height="46" viewBox="0 0 184 46" fill="none" xmlns="http://www.w3.org/2000/svg">
<path d="M184 9.97561H85.673C81.5559 3.95122 74.6657 0 66.8553 0C58.403 0 51.0406 4.62195 47.0809 11.4878H54.8308C57.8581 8.28049 62.1205 6.29268 66.8553 6.29268C76.022 6.29268 83.4449 13.7805 83.4449 23C83.4449 32.2317 76.0098 39.7073 66.8553 39.7073C61.3455 39.7073 56.4776 37 53.4503 32.8537H46.209C49.8781 40.6219 57.737 46 66.8553 46C75.2106 46 82.5125 41.4878 86.4965 34.7439H184V9.97561Z" fill="#0091D9"/>
<path d="M78.2863 23C78.2863 29.3536 73.1641 34.5122 66.8552 34.5122C60.5463 34.5122 55.4241 29.3536 55.4241 23C55.4241 16.6463 60.5463 11.4878 66.8552 11.4878C73.1641 11.4878 78.2863 16.6463 78.2863 23Z" fill="white"/>
<path d="M73.3579 23C73.3579 26.622 70.4396 29.561 66.8431 29.561C63.2467 29.561 60.3284 26.622 60.3284 23C60.3284 19.3781 63.2467 16.439 66.8431 16.439C70.4517 16.439 73.3579 19.3781 73.3579 23Z" fill="#FFB711"/>
<path d="M99.2837 18.8659C98.7873 16.3293 96.765 15.0366 94.2947 15.0366C90.0444 15.0366 88.2522 18.561 88.2522 22.3049C88.2522 26.4025 90.0565 29.8293 94.3189 29.8293C97.4431 29.8293 99.2353 27.622 99.4654 24.6464H101.839C101.391 29.122 98.6177 31.8415 94.1131 31.8415C88.5671 31.8415 85.8667 27.7195 85.8667 22.4878C85.8667 17.2805 88.8092 13.0244 94.3068 13.0244C98.0244 13.0244 101.1 15.0366 101.645 18.8659H99.2837V18.8659Z" fill="white"/>
<path d="M108.329 15.4756H102.384V13.4634H116.648V15.4756H110.703V31.4269H108.329V15.4756V15.4756Z" fill="white"/>
<path d="M132.354 24.9268C132.354 29.4512 129.787 31.8415 125.331 31.8415C120.729 31.8415 118.017 29.7073 118.017 24.9268V13.4512H120.39V24.9268C120.39 28.0976 122.195 29.8293 125.331 29.8293C128.322 29.8293 129.981 28.0976 129.981 24.9268V13.4512H132.354V24.9268V24.9268Z" fill="white"/>
<path d="M135.648 13.4634H142.114C143.688 13.4634 145.759 13.4634 146.837 14.122C148.011 14.8293 148.932 16.1098 148.932 17.8659C148.932 19.7805 147.939 21.2073 146.28 21.8903V21.939C148.484 22.3903 149.682 24.0488 149.682 26.2683C149.682 28.9147 147.806 31.4269 144.258 31.4269H135.636V13.4634H135.648ZM138.021 21.183H142.768C145.468 21.183 146.57 20.2073 146.57 18.3171C146.57 15.8293 144.827 15.4756 142.768 15.4756H138.021V21.183ZM138.021 29.4025H143.967C146.013 29.4025 147.309 28.1464 147.309 26.183C147.309 23.8415 145.432 23.1951 143.434 23.1951H138.009V29.4025H138.021Z" fill="white"/>
<path d="M152.262 13.4634H160.653C163.996 13.4634 166.078 15.3049 166.078 18.1708C166.078 20.3293 165.134 22.122 162.978 22.7195V22.7683C165.049 23.1708 165.473 24.7073 165.655 26.4634C165.8 28.2195 165.703 30.183 166.708 31.4147H164.056C163.378 30.683 163.753 28.7439 163.402 26.9878C163.148 25.2317 162.724 23.7439 160.435 23.7439H154.635V31.4147H152.262V13.4634V13.4634ZM159.588 21.7317C161.816 21.7317 163.705 21.1586 163.705 18.5366C163.705 16.7805 162.76 15.4634 160.532 15.4634H154.635V21.7317H159.588Z" fill="white"/>
<path d="M168.875 13.4634H181.191V15.4756H171.249V21.183H180.512V23.1951H171.249V29.4025H181.263V31.4147H168.875V13.4634Z" fill="white"/>
<path d="M11.9882 28.3171C10.8257 29.9146 8.93662 30.5732 7.15657 30.5732C2.67614 30.561 0 26.8658 0 22.9146C0 18.5 2.39763 14.6829 7.16867 14.6829C10.4624 14.6829 13.0659 16.1707 13.635 19.7195H11.637C11.2374 17.4268 9.39678 16.3902 7.16867 16.3902C3.52379 16.3902 2.01014 19.5732 2.01014 22.8171C2.01014 25.9756 3.82652 28.8658 7.16867 28.8658C10.2686 28.8658 12.1214 26.6829 12.0003 23.9146H7.19289V22.2195H13.7924V30.2073H12.5331L11.9882 28.3171Z" fill="white"/>
<path d="M15.4756 15.0488H22.5595C25.3809 15.0488 27.1368 16.5975 27.1368 19.0244C27.1368 20.8536 26.3376 22.3536 24.5212 22.8658V22.9146C26.2649 23.2561 26.6282 24.5488 26.7735 26.0366C26.8946 27.5244 26.822 29.1829 27.6575 30.2195H25.4294C24.8603 29.5975 25.1751 27.9634 24.8845 26.4878C24.6786 25 24.3153 23.7439 22.3779 23.7439H17.4857V30.2195H15.4877V15.0488H15.4756ZM21.6513 22.0244C23.5282 22.0244 25.1267 21.5366 25.1267 19.3293C25.1267 17.8415 24.3274 16.7439 22.4505 16.7439H17.4736V22.0244H21.6513V22.0244Z" fill="white"/>
<path d="M40.6628 24.7195C40.6628 28.5366 38.4953 30.5609 34.7414 30.5609C30.8664 30.5609 28.5657 28.7561 28.5657 24.7195V15.0366H30.5637V24.7195C30.5637 27.3902 32.0774 28.8536 34.7414 28.8536C37.2722 28.8536 38.6648 27.3902 38.6648 24.7195V15.0366H40.6628V24.7195V24.7195Z" fill="white"/>
<path d="M42.6003 15.0488H49.1999C52.1909 15.0488 53.8135 16.7317 53.8135 19.5244C53.8135 22.3293 52.1909 24.0244 49.1999 24H44.6105V30.1951H42.6124V15.0488H42.6003ZM44.5984 22.3049H48.5218C50.7741 22.3293 51.8155 21.3293 51.8155 19.5244C51.8155 17.7195 50.7862 16.7439 48.5218 16.7439H44.5984V22.3049Z" fill="white"/>
</svg>
