<svg enable-background="new 0 0 64 64" viewBox="0 0 64 64" xmlns="http://www.w3.org/2000/svg"><path d="m17.1 27.6c-1.1-.7-1.8-1.9-1.8-3.3 0-2.2 1.7-3.9 3.9-4 1.2 0 2.3.6 3 1.4 1.1 0 2 .3 2.7.8-.8-2.4-3-4.2-5.7-4.2-3.3 0-5.9 2.7-5.9 6 0 2.2 1.2 4.1 3 5.1.2-.6.4-1.3.8-1.8z" fill="#fff"/><g fill="none" stroke="#fff"><path d="m19.2 16v-3.2" stroke-linecap="round" stroke-miterlimit="10" stroke-width="2"/><path d="m25.1 18.4 2.3-2.2" stroke-linecap="round" stroke-miterlimit="10" stroke-width="2"/><path d="m11.1 32.4 2.2-2.2" stroke-linecap="round" stroke-miterlimit="10" stroke-width="2"/><path d="m13.3 18.4-2.2-2.2" stroke-linecap="round" stroke-miterlimit="10" stroke-width="2"/><path d="m10.9 24.3h-3.2" stroke-linecap="round" stroke-miterlimit="10" stroke-width="2"/><path d="m46.5 31.5h-.3c1.4-5.6-2.1-11.3-7.7-12.7-4.4-1.1-9 .8-11.4 4.7-3.3-2-7.6-.9-9.6 2.5-.6 1.1-1 2.3-1 3.5 0 .4 0 .8.1 1.1-4.1.8-6.7 4.7-5.9 8.8.7 3.5 3.7 6 7.3 6.1h.5 28c3.9 0 7-3.1 7-7s-3.1-7-7-7z" stroke-linejoin="round" stroke-width="3"/></g><circle cx="32" cy="50" fill="#fff" r="1.5"/><circle cx="39" cy="50" fill="#fff" r="1.5"/><circle cx="25" cy="50" fill="#fff" r="1.5"/></svg>