<svg fill="none" height="56" viewBox="0 0 56 56" width="56" xmlns="http://www.w3.org/2000/svg"><path clip-rule="evenodd" d="m47.8405 8.13762c-5.2636-5.24501-12.2639-8.13495891-19.7228-8.13762-15.3698 0-27.878384 12.4473-27.883732 27.7472-.002674 4.8911 1.282152 9.6651 3.722102 13.8723l-3.95607 14.3805 14.7815-3.8586c4.0723 2.2114 8.6581 3.3756 13.3241 3.3769h.0121c15.367 0 27.877-12.4485 27.8823-27.7485.0027-7.4151-2.8945-14.3872-8.1595-19.63218zm-19.7228 42.69458h-.0094c-4.158-.0014-8.237-1.1137-11.796-3.2146l-.8463-.5003-8.77183 2.2898 2.34102-8.5115-.55083-.8728c-2.31963-3.6723-3.54562-7.9167-3.54295-12.2743.00535-12.716 10.40159-23.06232 23.18559-23.06232 6.1902.00266 12.0086 2.4043 16.3845 6.76452 4.3759 4.3588 6.7837 10.1547 6.7811 16.3165-.0054 12.7173-10.4016 23.065-23.1749 23.065zm12.7118-17.2745c-.6966-.3473-4.1219-2.0238-4.7609-2.2553-.6391-.2315-1.103-.3473-1.567.3473-.4639.6945-1.7995 2.2566-2.2059 2.7183-.4065.463-.8129.5202-1.5095.173-.6965-.3473-2.9413-1.0791-5.6032-3.4408-2.0709-1.8388-3.4694-4.1088-3.8758-4.8033-.4065-.6945-.0428-1.0698.3048-1.4144.3128-.3113.6966-.8103 1.0455-1.2148.3489-.4044.4639-.6945.6966-1.1562.2326-.463.1163-.8675-.0575-1.2148s-1.567-3.7601-2.1485-5.1479c-.5656-1.3518-1.1405-1.1682-1.5669-1.1908-.4065-.02-.8704-.024-1.3357-.024-.4639 0-1.2193.173-1.8584.8676-.639.6945-2.4386 2.3723-2.4386 5.7838 0 3.4129 2.4961 6.71 2.8451 7.173.3489.463 4.9133 7.4657 11.9016 10.4701 1.6619.7145 2.9601 1.1416 3.9721 1.4609 1.6686.5282 3.1874.4537 4.3879.2754 1.3383-.1995 4.1219-1.6778 4.7021-3.2971.5803-1.6192.5803-3.0083.4065-3.297-.1738-.2914-.6377-.4657-1.3343-.813z" fill="#009fd4" fill-rule="evenodd"/></svg>