<svg fill="none" height="18" viewBox="0 0 18 18" width="18" xmlns="http://www.w3.org/2000/svg" xmlns:xlink="http://www.w3.org/1999/xlink"><clipPath id="a"><path d="m0 0h18v18h-18z"/></clipPath><g clip-path="url(#a)" fill="#3d3f52"><path d="m7.92682 0c-4.37073 0-7.92682 3.55609-7.92682 7.92682 0 4.37098 3.55609 7.92678 7.92682 7.92678 4.37098 0 7.92678-3.5558 7.92678-7.92678 0-4.37073-3.5558-7.92682-7.92678-7.92682zm0 14.3903c-3.56389 0-6.46341-2.8995-6.46341-6.46344 0-3.5639 2.89952-6.46345 6.46341-6.46345 3.56388 0 6.46338 2.89952 6.46338 6.46341 0 3.56388-2.8995 6.46348-6.46338 6.46348z"/><path d="m17.786 16.7513-4.1952-4.1951c-.2858-.2859-.7488-.2859-1.0346 0-.2859.2856-.2859.749 0 1.0346l4.1951 4.1952c.1429.1429.33.2143.5173.2143.1871 0 .3744-.0714.5174-.2143.2858-.2856.2858-.7491 0-1.0347z"/></g></svg>