<svg fill="none" height="59" viewBox="0 0 64 59" width="64" xmlns="http://www.w3.org/2000/svg"><g fill="#009fd4"><path d="m63.3912 23.3619c-.0124-1.5594-.7977-2.9813-2.1688-3.9101l-7.94-5.3434v-1.8346c0-2.67174-2.3683-4.85038-5.2726-4.85038h-4.6618l-8.5009-5.72181c-1.8573-1.261325-4.3502-1.261325-6.2075 0l-8.5133 5.72181h-4.6618c-2.9043 0-5.2726 2.17864-5.2726 4.85038v1.8346l-7.9525 5.3434c-1.358651.9174-2.1439275 2.3277-2.1563922 3.8757v.0459l.1246472 34.0098c0 .8944.785276 1.6168 1.757525 1.6168h59.68102c.9722 0 1.7575-.7224 1.7575-1.6168v-34.0098c-.0125 0-.0125 0-.0125-.0115zm-32.6824-19.04592c.6108-.4128 1.4334-.4128 2.0442 0l4.6244 3.1189h-11.3055zm-17.0268 7.96922h.0125c0-.8944.7852-1.6168 1.7575-1.6168h32.5453c.9723 0 1.7575.7224 1.7575 1.6168v18.7249l-17.0018 11.4436c-.6108.4128-1.4334.4128-2.0567 0l-17.0143-11.4436zm-9.37346 9.781 5.87086-3.9445v10.5148l-5.87086-3.9559c-.44873-.3096-.71049-.7797-.71049-1.2957-.01246-.5275.2493-1.0091.71049-1.3187zm-.69802 6.1575 17.71238 11.9138-17.62513 13.6911zm3.02892 27.5542 17.60016-13.6682 4.4 2.9584c.9224.6192 2.0069.9288 3.0913.9288s2.1688-.3096 3.1037-.9288l4.3876-2.9584 17.6001 13.6682zm53.23676-1.8691-17.7248-13.7713 17.7248-11.9252zm-.723-29.2282-5.8708 3.9445v-10.5034l5.8708 3.9445c.4612.3096.723.7912.723 1.3072 0 .5275-.2618.9976-.723 1.3072z"/><path d="m44.4946 17.5011h-25.5153c-.9722 0-1.7575.7223-1.7575 1.6167-.0124.8943.7853 1.6166 1.7575 1.6166h25.5153c.9722 0 1.7575-.7223 1.7575-1.6166 0-.8944-.7853-1.6167-1.7575-1.6167z"/><path d="m44.4954 25.9967h-25.5152c-.9723 0-1.7575.7223-1.7575 1.6166 0 .8942.7852 1.6165 1.7575 1.6165h25.5152c.9598 0 1.7576-.7223 1.7576-1.6165 0-.8943-.7853-1.6166-1.7576-1.6166z"/></g></svg>