<svg enable-background="new 0 0 30 30" viewBox="0 0 30 30" xmlns="http://www.w3.org/2000/svg"><path d="m15 11.9c-1.7 0-3.1 1.4-3.1 3.1s1.4 3.1 3.1 3.1 3.1-1.4 3.1-3.1-1.4-3.1-3.1-3.1zm0 5.1c-1.1 0-2-.9-2-2s.9-2 2-2 2 .9 2 2-.9 2-2 2zm4-5.2c0 .4-.3.7-.7.7s-.7-.3-.7-.7.3-.7.7-.7c.3-.1.7.3.7.7zm2 .7c0-1-.3-1.8-1-2.5s-1.6-.9-2.5-1c-1-.1-4-.1-5 0-1 0-1.8.3-2.5 1s-1 1.5-1 2.5c-.1 1-.1 4 0 5 0 1 .3 1.8 1 2.5s1.6.9 2.5 1c1 .1 4 .1 5 0 1 0 1.8-.3 2.5-1s.9-1.6 1-2.5c.1-1 .1-4 0-5zm-1.3 6.1c-.2.5-.6.9-1.1 1.1-.8.3-2.7.3-3.6.3s-2.8.1-3.6-.2c-.5-.2-.9-.6-1.1-1.1-.3-.9-.3-2.8-.3-3.7s-.1-2.8.2-3.6c.2-.5.6-.9 1.1-1.1.9-.3 2.8-.3 3.7-.3s2.8-.1 3.6.2c.5.2.9.6 1.1 1.1.3.9.3 2.8.3 3.7s0 2.8-.3 3.6z" fill="#3d3f52"/></svg>