<svg fill="none" height="28" viewBox="0 0 125 28" width="125" xmlns="http://www.w3.org/2000/svg" xmlns:xlink="http://www.w3.org/1999/xlink"><clipPath id="a"><path d="m0 0h124.724v28h-124.724z"/></clipPath><g clip-path="url(#a)"><path d="m70.4993 4.14734h-14.01v-3.676637h20.4241v.130058l-13.2334 27.238439h-4.5733z" fill="#231F20"/><path d="m75.1143 22.1829 3.6103-1.9259c1.2431 2.166 3.1289 3.8518 6.6993 3.8518 3.7304 0 5.8163-2.4874 5.8163-5.8564 0-3.3703-2.286-5.8164-6.3378-5.8164-3.0089 0-5.3299 1.123-6.8943 2.5274l-.2764-.12v-14.372697h15.5219v3.676637h-11.4376v5.39991c.8166-.52148 2.3048-.80285 3.9092-.80285 5.9777 0 10.0183 4.0518 10.0183 9.4267 0 5.9377-4.0769 9.8281-10.2946 9.8281-4.7734 0-8.6501-2.4873-10.3346-5.8163z" fill="#231F20"/><path d="m96.5654 14c0-8.06235 6.2576-14 14.0796-14 7.823 0 14.081 5.93765 14.081 14 0 8.0636-6.258 14-14.081 14-7.822 0-14.0796-5.9364-14.0796-14zm23.7086 0c0-5.77633-3.972-10.10826-9.629-10.10826-5.656 0-9.628 4.33193-9.628 10.10826 0 5.7763 3.972 10.1095 9.628 10.1095 5.657 0 9.629-4.3332 9.629-10.1095z" fill="#231F20"/><path d="m111.225 8.57273v-8.56882375h-1.161v8.56882375c-2.668.28888-4.746 2.54867-4.746 5.29357 0 2.9414 2.385 5.3274 5.327 5.3274 2.941 0 5.327-2.3848 5.327-5.3274 0-2.7449-2.079-5.00344-4.747-5.29357z" fill="#231F20"/><path d="m52.3448 0h-1.7833v27.4835h1.7833z" fill="#EC1C24"/><g fill="#231F20"><path d="m11.2238.324219-11.2238 26.958281h2.41233l1.88834-4.9297h7.86723v-1.7833h-7.13315l6.29405-15.94461z"/><path d="m11.224.324219 11.225 26.958281h-2.4136l-1.8871-4.9297h-7.8685v-1.7833h7.1332l-6.2941-15.94461z"/><path d="m22.4488 27.283h-2.1509v-27.072062l2.1509 3.146402z"/><path d="m34.044 17.4199-1.2281 1.8821-12.1241-15.21058-.3939-3.880482z"/><path d="m43.1006 27.4217h2.1509v-27.072091l-2.1509 3.146401z"/><path d="m31.5049 17.5585 1.3106 1.7421 12.0416-15.07051.3939-3.880481z"/></g></g></svg>