<svg fill="none" height="28" viewBox="0 0 125 28" width="125" xmlns="http://www.w3.org/2000/svg" xmlns:xlink="http://www.w3.org/1999/xlink"><clipPath id="a"><path d="m0 0h124.724v28h-124.724z"/></clipPath><g clip-path="url(#a)"><path d="m70.4993 4.14759h-14.01v-3.676643h20.4241v.130058l-13.2334 27.238395h-4.5733z" fill="#fff"/><path d="m75.1143 22.1831 3.6103-1.9258c1.2431 2.1659 3.1289 3.8517 6.6993 3.8517 3.7304 0 5.8163-2.4874 5.8163-5.8564 0-3.3702-2.286-5.8163-6.3378-5.8163-3.0089 0-5.3299 1.123-6.8943 2.5274l-.2764-.1201v-14.372653h15.5219v3.676643h-11.4376v5.39991c.8166-.52148 2.3048-.80286 3.9092-.80286 5.9777 0 10.0183 4.05176 10.0183 9.42666 0 5.9377-4.0769 9.8282-10.2946 9.8282-4.7734 0-8.6501-2.4874-10.3346-5.8164z" fill="#fff"/><path d="m96.5654 14c0-8.06235 6.2576-14 14.0796-14 7.823 0 14.081 5.93765 14.081 14 0 8.0636-6.258 14-14.081 14-7.822 0-14.0796-5.9364-14.0796-14zm23.7086 0c0-5.77633-3.972-10.10826-9.629-10.10826-5.656 0-9.628 4.33193-9.628 10.10826 0 5.7763 3.972 10.1095 9.628 10.1095 5.657 0 9.629-4.3332 9.629-10.1095z" fill="#fff"/><path d="m111.225 8.57225v-8.56883203h-1.161v8.56883203c-2.668.28887-4.746 2.54865-4.746 5.29365 0 2.9413 2.385 5.3273 5.327 5.3273 2.941 0 5.327-2.3848 5.327-5.3273 0-2.745-2.079-5.00352-4.747-5.29365z" fill="#009fd4"/><path d="m52.3448 0h-1.7833v27.4835h1.7833z" fill="#009fd4"/><g fill="#fff"><path d="m11.2238.324707-11.2238 26.958293h2.41233l1.88834-4.9297h7.86723v-1.7833h-7.13315l6.29405-15.94462z"/><path d="m11.2235.324707 11.225 26.958293h-2.4136l-1.8871-4.9297h-7.8685v-1.7833h7.1332l-6.2941-15.94462z"/><path d="m22.4488 27.2828h-2.1509v-27.072107l2.1509 3.146407z"/><path d="m34.044 17.4196-1.2281 1.8821-12.1241-15.21052-.3939-3.880487z"/><path d="m43.1006 27.4222h2.1509v-27.072102l-2.1509 3.146402z"/><path d="m31.5049 17.559 1.3106 1.7421 12.0416-15.07052.3939-3.880482z"/></g></g></svg>