<svg fill="none" height="72" viewBox="0 0 73 72" width="73" xmlns="http://www.w3.org/2000/svg"><g fill="#009fd4"><path d="m48.5467 6.00012h-.03c-.828 0-1.485.67205-1.485 1.50005s.687 1.4999 1.515 1.4999 1.5-.67204 1.5-1.50004-.672-1.49991-1.5-1.49991z"/><path d="m36.4863 65.9999c1.656 0 2.9999-1.3439 2.9999-2.9999s-1.3439-3-2.9999-3-3 1.344-3 3 1.344 2.9999 3 2.9999z"/><path d="m39.4864 6.00012h-6c-.828 0-1.5001.67205-1.5001 1.50005s.6722 1.4999 1.5002 1.4999h6.0001c.8278 0 1.4999-.67204 1.4999-1.50004s-.6721-1.49991-1.5001-1.49991z"/><path d="m51.4864 0h-30.0001c-4.134 0-7.5 3.366-7.5 7.49995v56.99995c0 4.1341 3.366 7.5001 7.5 7.5001h29.9999c4.1341 0 7.5001-3.366 7.5001-7.5v-57.00005c0-4.13395-3.366-7.49995-7.4999-7.49995zm4.5 64.5c0 2.4811-2.019 4.5-4.5 4.5h-30.0001c-2.4811 0-4.5-2.0189-4.5-4.5v-7.4999h38.9999v7.4999zm0-10.5h-39.0001v-39h38.9999v39zm0-42h-39.0001v-4.50005c0-2.48104 2.0189-4.5 4.5-4.5h29.9999c2.4811 0 4.5 2.01896 4.5 4.5v4.50005z"/></g></svg>