<svg height="512" viewBox="0 0 512 512" width="512" xmlns="http://www.w3.org/2000/svg"><g fill="none"><g fill="#000"><path d="m256 0c-141.152 0-256 114.848-256 256s114.848 256 256 256 256-114.848 256-256-114.848-256-256-256zm0 480c-123.52 0-224-100.48-224-224s100.48-224 224-224 224 100.48 224 224-100.48 224-224 224z"/><path d="m256 64v384c112 0 192-85.968 192-192 0-106.048-80-192-192-192z"/><path d="m256 64v384c112 0 192-85.968 192-192 0-106.048-80-192-192-192z"/></g><path d="m64 64v384c112 0 192-85.968 192-192 0-106.048-80-192-192-192z" fill="#fff" transform="matrix(-1 0 0 -1 320 512)"/></g></svg>