<svg enable-background="new 0 0 30 30" viewBox="0 0 30 30" xmlns="http://www.w3.org/2000/svg"><path clip-rule="evenodd" d="m20.3 9.6c-1.4-1.4-3.3-2.2-5.3-2.2-4.1 0-7.5 3.4-7.5 7.4 0 1.3.4 2.6 1 3.7l-1 3.8 4-1c1.1.6 2.3.9 3.6.9 4.1 0 7.4-3.3 7.4-7.4 0-1.9-.8-3.8-2.2-5.2zm-5.2 11.4c-1.1 0-2.2-.3-3.1-.9l-.3-.1-2.4.7.6-2.3-.2-.3c-.6-1-.9-2.1-.9-3.3 0-3.4 2.8-6.1 6.2-6.1 1.7 0 3.2.6 4.4 1.8s1.8 2.7 1.8 4.3c.1 3.5-2.7 6.2-6.1 6.2zm3.4-4.6c-.2-.1-1.1-.5-1.3-.6s-.3-.1-.4.1-.5.6-.6.7-.2.2-.4.1-.8-.3-1.5-.9c-.6-.5-.9-1.1-1-1.3s0-.3.1-.4l.3-.3c.1-.1.1-.2.2-.3s.1-.2 0-.3-.4-1-.6-1.4-.3-.3-.4-.3-.3 0-.4 0-.3.1-.5.2-.7.6-.7 1.5.7 1.8.8 1.9 1.3 2 3.2 2.8c.5.2.8.3 1.1.4.5.2.9.1 1.2.1.4-.1 1.1-.5 1.2-.9.2-.4.2-.8.1-.9-.1 0-.3-.1-.4-.2z" fill="#3d3f52" fill-rule="evenodd"/></svg>