<svg enable-background="new 0 0 30 30" viewBox="0 0 30 30" xmlns="http://www.w3.org/2000/svg"><path clip-rule="evenodd" d="m25.5 4.6c-2.8-2.8-6.5-4.4-10.5-4.4-8.1 0-14.9 6.8-14.9 14.7 0 2.6.8 5.2 2 7.3l-2 7.5 7.9-2c2.2 1.2 4.6 1.8 7.1 1.8 8.1 0 14.7-6.5 14.7-14.7.1-3.7-1.5-7.4-4.3-10.2zm-10.3 22.6c-2.2 0-4.4-.6-6.1-1.8l-.6-.2-4.8 1.4 1.2-4.6-.4-.6c-1.2-2-1.8-4.2-1.8-6.5 0-6.7 5.6-12.1 12.3-12.1 3.4 0 6.3 1.2 8.7 3.6s3.6 5.4 3.6 8.5c.2 6.9-5.4 12.3-12.1 12.3zm6.7-9.1c-.4-.2-2.2-1-2.6-1.2s-.6-.2-.8.2-1 1.2-1.2 1.4-.4.4-.8.2-1.6-.6-3-1.8c-1.2-1-1.8-2.2-2-2.6s0-.6.2-.8.4-.4.6-.6.2-.4.4-.6.2-.4 0-.6-.8-2-1.2-2.8-.6-.6-.8-.6-.6 0-.8 0-.6.2-1 .4-1.4 1.2-1.4 3 1.4 3.6 1.6 3.8 2.6 4 6.3 5.6c1 .4 1.6.6 2.2.8 1 .4 1.8.2 2.4.2.8-.2 2.2-1 2.4-1.8.4-.8.4-1.6.2-1.8-.1 0-.5-.2-.7-.4z" fill="#3d3f52" fill-rule="evenodd"/></svg>